<svg version="1.1" xmlns="http://www.w3.org/2000/svg" xmlns:xlink="http://www.w3.org/1999/xlink" width="33.16979" height="29.83023" viewBox="0,0,33.16979,29.83023"><g transform="translate(-581.88234,-4.146)"><g data-paper-data="{&quot;isPaintingLayer&quot;:true}" fill-rule="nonzero" stroke="none" stroke-width="0.5" stroke-linecap="butt" stroke-linejoin="miter" stroke-miterlimit="10" stroke-dasharray="" stroke-dashoffset="0" style="mix-blend-mode: normal"><path d="M602.94285,5.19023c0,-0.01766 0.00062,-0.03469 0.00183,-0.05112c-2.36485,-0.00076 -4.72915,0.08137 -7.13708,0.38433c-3.0084,0.49155 -6.17384,0.88108 -9.22189,0.88108c-0.26469,0 -2.67145,-0.15287 -2.71753,0.04858c-0.30267,1.32327 -0.06046,3.19073 -0.06856,4.57482c0.52714,6.28768 1.27637,12.75305 0.12759,19.0007c-0.19723,0.59409 -0.35939,1.20114 -0.59385,1.78154c-0.16066,0.3977 -0.96189,1.11096 -0.53696,1.16939c1.18324,0.1627 2.88106,-0.51412 4.12793,-0.63722c3.40184,-0.33586 6.86506,0.16004 10.26226,0.34879c4.19841,0.26239 8.84121,0.60174 12.96433,-0.27123c2.4234,-0.5131 3.98759,0.22188 3.67175,-2.30276c-0.86812,-6.94543 -0.06398,-13.46314 -0.16513,-20.31418c-0.00046,-1.15147 0.3669,-3.01626 0.05875,-4.09106c-0.04889,-0.17054 -1.84535,-0.26329 -1.87237,-0.26506c-2.56178,-0.16787 -5.03491,0.75264 -7.59321,0.24098l-0.80787,0.00243c0,0 -0.5,0 -0.5,-0.5zM611.99433,4.45387c0.76999,0.0402 2.16917,0.01479 2.60364,0.78614c0.54115,0.96073 0.05914,3.46056 0.05956,4.55743c0.03944,6.8146 -0.70508,13.29614 0.15742,20.19563c0.01783,0.14276 0.26038,2.02243 0.23537,2.09618c-0.30949,0.91286 -2.90209,0.9299 -3.71395,1.10179c-4.61614,0.97736 -9.49922,0.79267 -14.2087,0.49831c-3.65005,-0.20276 -7.42573,-0.79944 -11.05841,-0.19188c-0.77585,0.12976 -3.32623,0.88259 -3.97997,0.18915c-0.71144,-0.75464 0.61966,-3.16083 0.8692,-3.90622c1.10506,-6.15614 0.35501,-12.52023 -0.15812,-18.71359c0.00597,-1.26395 -0.38453,-4.0348 0.21715,-5.13947c0.45942,-0.84349 2.24844,-0.52285 2.99675,-0.52285c3.21367,0 6.47967,-0.3533 9.65069,-0.87085c5.36294,-0.6658 10.51039,-0.272 15.92073,-0.272c0,0 0.26435,0 0.40862,0.19221z" fill="#000000"/><path d="M602.9588,5.14285c0,0.5 0.50208,0.50075 0.50208,0.50075l0.81024,-0.00144c2.5583,0.51166 5.04632,-0.39862 7.6081,-0.23075c0.02702,0.00177 1.82601,0.09723 1.8749,0.26777c0.30815,1.0748 -0.0542,2.9465 -0.05374,4.09797c0.10115,6.85104 -0.70505,13.4235 0.16307,20.36893c0.31584,2.52464 -1.25587,1.79806 -3.67927,2.31116c-4.12312,0.87297 -8.80312,0.54612 -13.00153,0.28373c-3.3972,-0.18875 -6.88895,-0.69649 -10.29079,-0.36063c-1.24687,0.1231 -2.94939,0.79534 -4.13263,0.63264c-0.42493,-0.05843 0.37544,-0.77267 0.5361,-1.17037c0.23446,-0.5804 0.39493,-1.18954 0.59216,-1.78363c1.14878,-6.24765 0.39558,-12.76767 -0.13156,-19.05535c0.0081,-1.38409 -0.22801,-3.26021 0.07466,-4.58348c0.04608,-0.20145 2.45655,-0.05238 2.72124,-0.05238c3.04805,0 6.23845,-0.40197 9.24685,-0.89352c2.40793,-0.30296 4.79707,-0.3833 7.16192,-0.38254c-0.00121,0.01643 -0.00178,0.03348 -0.00178,0.05114z" data-paper-data="{&quot;noHover&quot;:false,&quot;origItem&quot;:[&quot;Path&quot;,{&quot;applyMatrix&quot;:true,&quot;segments&quot;:[[[602.94285,5.19023],[0,0],[0,-0.01766]],[[602.94468,5.13911],[-0.00121,0.01643],[-2.36485,-0.00076]],[[595.8076,5.52344],[2.40793,-0.30296],[-3.0084,0.49155]],[[586.58571,6.40452],[3.04805,0],[-0.26469,0]],[[583.86818,6.4531],[0.04608,-0.20145],[-0.30267,1.32327]],[[583.79962,11.02792],[0.0081,-1.38409],[0.52714,6.28768]],[[583.92721,30.02862],[1.14878,-6.24765],[-0.19723,0.59409]],[[583.33336,31.81016],[0.23446,-0.5804],[-0.16066,0.3977]],[[582.7964,32.97955],[-0.42493,-0.05843],[1.18324,0.1627]],[[586.92433,32.34233],[-1.24687,0.1231],[3.40184,-0.33586]],[[597.18659,32.69112],[-3.3972,-0.18875],[4.19841,0.26239]],[[610.15092,32.41989],[-4.12312,0.87297],[2.4234,-0.5131]],[[613.82267,30.11713],[0.31584,2.52464],[-0.86812,-6.94543]],[[613.65754,9.80295],[0.10115,6.85104],[-0.00046,-1.15147]],[[613.71629,5.71189],[0.30815,1.0748],[-0.04889,-0.17054]],[[611.84392,5.44683],[0.02702,0.00177],[-2.56178,-0.16787]],[[604.25071,5.68781],[2.5583,0.51166],[0,0]],[603.44284,5.69024],[[602.94284,5.19024],[0,0.5],[0,0]]],&quot;closed&quot;:true,&quot;fillColor&quot;:[0,0,0,1]}]}" fill="#ffffff"/><path d="M587.82109,16.48862c0,-0.5 0.5,-0.5 0.5,-0.5h0.14286c1.37306,0 2.77352,0.11546 4.10574,0.43925c1.74563,0.25054 3.50306,0.32489 5.26556,0.38039c0.38026,-2.42304 0.88042,-4.81666 1.42934,-7.01233c0,0 0.12127,-0.48507 0.60634,-0.3638c0.48507,0.12127 0.3638,0.60634 0.3638,0.60634c-0.53279,2.13117 -1.01963,4.45066 -1.39278,6.80052c1.95255,0.05979 3.90975,0.13317 5.86252,0.43346c1.41057,0.21691 3.42514,0.29192 4.31836,1.51026c0,0 0.27735,0.41603 -0.13868,0.69338c-0.41603,0.27735 -0.69338,-0.13868 -0.69338,-0.13868c-0.47602,-0.8742 -2.7373,-0.93801 -3.6383,-1.07658c-1.95333,-0.30042 -3.90868,-0.3765 -5.85975,-0.43785c-0.36314,2.51454 -0.58592,5.0386 -0.58592,7.37994c-0.00113,0.86881 -0.12474,1.71326 -0.14298,2.58231l-0.1684,0.57581c0,0 -0.15811,0.47434 -0.63246,0.31623c-0.47434,-0.15811 -0.31623,-0.63246 -0.31623,-0.63246l0.11732,-0.28134c0.01939,-0.86175 0.14396,-1.69984 0.14274,-2.56055c0,-2.35103 0.2204,-4.88478 0.58105,-7.41132c-1.77587,-0.05692 -3.5473,-0.1315 -5.30955,-0.3822c-1.26462,-0.32109 -2.60798,-0.42077 -3.91436,-0.42077h-0.14286c0,0 -0.5,0 -0.5,-0.5z" fill="#000000"/></g></g></svg>