<svg version="1.1" xmlns="http://www.w3.org/2000/svg" xmlns:xlink="http://www.w3.org/1999/xlink" width="159.65613" height="71.5706" viewBox="0,0,159.65613,71.5706"><g transform="translate(-479.25,-12.34248)"><g data-paper-data="{&quot;isPaintingLayer&quot;:true}" fill-rule="nonzero" stroke-linecap="butt" stroke-linejoin="miter" stroke-miterlimit="10" stroke-dasharray="" stroke-dashoffset="0" style="mix-blend-mode: normal"><path d="M480,83.16308v-70.0706h156.49999v70.0706z" fill="#ffffff" stroke="#000000" stroke-width="1.5"/><path d="M546.34286,13.93123c0,-0.01766 0.00062,-0.03469 0.00183,-0.05112c-2.36485,-0.00076 -4.72915,0.08137 -7.13708,0.38433c-3.0084,0.49155 -6.17384,0.88108 -9.22189,0.88108c-0.26469,0 -2.67145,-0.15287 -2.71753,0.04858c-0.30267,1.32327 -0.06046,3.19073 -0.06856,4.57482c0.52714,6.28768 1.27637,12.75305 0.12759,19.0007c-0.19723,0.59409 -0.35939,1.20114 -0.59385,1.78154c-0.16066,0.3977 -0.96189,1.11096 -0.53696,1.16939c1.18324,0.1627 2.88106,-0.51412 4.12793,-0.63722c3.40184,-0.33586 6.86506,0.16004 10.26226,0.34879c4.19841,0.26239 8.84121,0.60174 12.96433,-0.27123c2.4234,-0.5131 3.98759,0.22188 3.67175,-2.30276c-0.86812,-6.94543 -0.06398,-13.46314 -0.16513,-20.31418c-0.00046,-1.15147 0.3669,-3.01626 0.05875,-4.09106c-0.04889,-0.17054 -1.84535,-0.26329 -1.87237,-0.26506c-2.56178,-0.16787 -5.03491,0.75264 -7.59321,0.24098l-0.80787,0.00243c0,0 -0.5,0 -0.5,-0.5zM555.39433,13.19487c0.76999,0.0402 2.16917,0.01479 2.60364,0.78614c0.54115,0.96073 0.05914,3.46056 0.05956,4.55743c0.03944,6.8146 -0.70508,13.29614 0.15742,20.19563c0.01783,0.14276 0.26038,2.02243 0.23537,2.09618c-0.30949,0.91286 -2.90209,0.9299 -3.71395,1.10179c-4.61614,0.97736 -9.49922,0.79267 -14.2087,0.49831c-3.65005,-0.20276 -7.42573,-0.79944 -11.05841,-0.19188c-0.77585,0.12976 -3.32623,0.88259 -3.97997,0.18915c-0.71144,-0.75464 0.61966,-3.16083 0.8692,-3.90622c1.10506,-6.15614 0.35501,-12.52023 -0.15812,-18.71359c0.00597,-1.26395 -0.38453,-4.0348 0.21715,-5.13947c0.45942,-0.84349 2.24844,-0.52285 2.99675,-0.52285c3.21367,0 6.47967,-0.3533 9.65069,-0.87085c5.36294,-0.6658 10.51039,-0.272 15.92073,-0.272c0,0 0.26435,0 0.40862,0.19221z" fill="#000000" stroke="none" stroke-width="0.5"/><path d="M531.22109,25.22963c0,-0.5 0.5,-0.5 0.5,-0.5h0.14286c1.37306,0 2.77352,0.11546 4.10574,0.43925c1.74563,0.25054 3.50306,0.32489 5.26556,0.38039c0.38026,-2.42304 0.88042,-4.81666 1.42934,-7.01233c0,0 0.12127,-0.48507 0.60634,-0.3638c0.48507,0.12127 0.3638,0.60634 0.3638,0.60634c-0.53279,2.13117 -1.01963,4.45066 -1.39278,6.80052c1.95255,0.05979 3.90975,0.13317 5.86252,0.43346c1.41057,0.21691 3.42514,0.29192 4.31836,1.51026c0,0 0.27735,0.41603 -0.13868,0.69338c-0.41603,0.27735 -0.69338,-0.13868 -0.69338,-0.13868c-0.47602,-0.8742 -2.7373,-0.93801 -3.6383,-1.07658c-1.95333,-0.30042 -3.90868,-0.3765 -5.85975,-0.43785c-0.36314,2.51454 -0.58592,5.0386 -0.58592,7.37994c-0.00113,0.86881 -0.12474,1.71326 -0.14298,2.58231l-0.1684,0.57581c0,0 -0.15811,0.47434 -0.63246,0.31623c-0.47434,-0.15811 -0.31623,-0.63246 -0.31623,-0.63246l0.11732,-0.28134c0.01939,-0.86175 0.14396,-1.69984 0.14274,-2.56055c0,-2.35103 0.2204,-4.88478 0.58105,-7.41132c-1.77587,-0.05692 -3.5473,-0.1315 -5.30955,-0.3822c-1.26462,-0.32109 -2.60798,-0.42077 -3.91436,-0.42077h-0.14286c0,0 -0.5,0 -0.5,-0.5z" fill="#000000" stroke="none" stroke-width="0.5"/><path d="M485.24072,22.27771c2.0531,0.10484 4.04669,0.28557 6.1307,0.28557c2.31609,0.00452 4.5506,0.76804 6.87497,0.85746c3.25517,0.12523 6.59395,-0.55264 9.80493,0.15445c0,0 0.48809,0.10847 0.37963,0.59656c-0.10847,0.48809 -0.59656,0.37963 -0.59656,0.37963c-3.13444,-0.70345 -6.44146,-0.00919 -9.62364,-0.13127c-2.31,-0.08862 -4.54152,-0.86174 -6.83932,-0.85683c-2.08786,0 -4.09895,-0.1914 -6.15502,-0.28586l-0.70213,0.00015c0,0 -0.02135,0 -0.05522,-0.00441c-0.25295,0.62105 -0.47536,1.27173 -0.78889,1.7389c-2.45164,5.99351 3.46021,9.35893 7.98317,12.23537c2.32618,1.51107 4.99594,0.85606 7.63632,1.17674c2.84083,0.34502 5.55018,1.63719 8.03198,3.05542c2.20402,1.10251 4.06526,2.73886 6.22377,3.89183c0.30446,0.16263 1.32768,0.46871 1.7849,0.85541c-0.24224,-0.46216 -0.59648,-1.20867 -0.71895,-1.57686c-0.58305,-1.75288 -1.32065,-3.03545 -2.40035,-4.50376c-0.48718,-1.57511 -2.38787,-3.29424 -2.3369,-4.99185c0.02974,-0.99045 1.73592,-2.06923 2.20429,-2.90747c1.39878,-2.50339 0.86195,-4.50532 0.09171,-7.07045c-0.1963,-1.17288 -0.55063,-2.70282 -1.21942,-3.69646c-0.68618,-1.01947 -2.12213,-1.41585 -3.17011,-1.80091c-2.6741,-0.98255 -5.10476,-3.28081 -8.12345,-3.25865c-3.49821,0 -6.38125,0.75526 -9.60715,1.98943c-0.71395,0.27314 -2.77402,0.31947 -2.51179,1.42255c0.85595,-0.21055 1.70906,-0.42421 2.41301,-0.89943l0.70592,-0.08397c0,0 0.5,0 0.5,0.5c0,0.5 -0.5,0.5 -0.5,0.5l-0.15122,-0.08397c-1.49609,0.98718 -3.70863,0.82801 -5.08931,1.95881c-0.18053,0.14786 -0.33475,0.33764 -0.47153,0.55382zM486.58173,20.08161c-0.34645,-2.06041 1.631,-2.03575 3.09947,-2.60127c3.33574,-1.28463 6.35862,-2.05992 9.97594,-2.05992c3.1853,0.01887 5.62429,2.29763 8.44798,3.31278c1.27709,0.45913 2.84393,0.97409 3.67268,2.18473c0.73807,1.07818 1.15418,2.75353 1.36637,4.03218c0.84333,2.81399 1.31867,5.04989 -0.194,7.7867c-0.27169,0.49156 -2.11584,2.03593 -2.08143,2.5211c0.10607,1.49566 1.80639,2.98303 2.23452,4.43673c1.31693,1.71408 2.05496,3.4287 2.74251,5.49624c0.05552,0.16696 0.62135,1.77893 0.50526,1.87547c-0.91279,0.75906 -1.6823,-0.07466 -2.35326,-0.41668c-2.47806,-1.26316 -4.64993,-3.03997 -7.14798,-4.28842c-2.34724,-1.34124 -4.97475,-2.67816 -7.68231,-2.94458c-2.83534,-0.279 -5.54004,0.24497 -8.05101,-1.32558c-5.05911,-3.22138 -11.0463,-6.9063 -8.3295,-13.54802c0.70135,-1.05856 0.98472,-2.74073 1.96784,-3.56892c0.52684,-0.44381 1.1604,-0.69789 1.82692,-0.89254z" fill="#000000" stroke="none" stroke-width="0.5"/><path d="M489.02172,31.89811c0,-0.5 0.5,-0.5 0.5,-0.5h0.4294c2.16868,0.00654 4.36794,0.30534 6.52951,0.52493c5.41288,1.08233 11.16697,0.56505 16.56772,1.62763c0,0 0.49029,0.09806 0.39223,0.58835c-0.09806,0.49029 -0.58835,0.39223 -0.58835,0.39223c-5.37659,-1.09537 -11.12042,-0.54874 -16.51967,-1.61924c-2.11152,-0.21205 -4.26502,-0.51353 -6.3831,-0.51391h-0.42774c0,0 -0.5,0 -0.5,-0.5z" fill="#000000" stroke="none" stroke-width="0.5"/><path d="M488.80415,26.32528c0,-0.5 0.5,-0.5 0.5,-0.5l0.54002,0.01258c0.89257,0.20451 1.77683,0.32132 2.68681,0.42309c5.27612,1.21256 11.91605,-1.40396 16.85393,1.04569c0,0 0.44721,0.22361 0.22361,0.67082c-0.22361,0.44721 -0.67082,0.22361 -0.67082,0.22361c-4.74204,-2.39252 -11.45916,0.23136 -16.57464,-0.95431c-0.92827,-0.10243 -1.83106,-0.22624 -2.74177,-0.43405l-0.31713,0.01258c0,0 -0.5,0 -0.5,-0.5z" fill="#000000" stroke="none" stroke-width="0.5"/><path d="M592.92698,35.51779c0.07406,-0.07585 0.18605,-0.1332 0.35538,-0.1332c0.5,0 0.5,0.5 0.5,0.5c0,4.79514 0.40072,10.27948 -1.83041,14.60609c-2.13084,1.64955 -3.94482,3.052 -6.76716,3.30225c-0.34073,0.03021 -1.79302,0.04691 -1.94432,-0.10204c-0.54871,-0.54017 -0.24558,-1.7605 -0.20424,-2.39462c0.13615,-2.08845 0.74613,-4.02725 0.74613,-6.12596c0,-1.71007 -0.23831,-3.88432 0.15623,-5.54345c0.1437,-0.6043 0.7157,-2.5976 0.34701,-3.19369c-0.52462,-0.84821 -4.75836,-1.04716 -5.81112,-1.05101c-1.37198,0.27763 -4.35778,0.50799 -5.21508,1.79479c-0.56854,0.85338 -0.33419,2.01261 -0.33419,2.99336c0,2.66667 0,5.33333 0,8c0,0.96547 0.40425,3.27148 -0.05279,4.08075c-0.73236,1.29678 -4.32199,0.88573 -5.22934,-0.01291c-1.82949,-1.81195 -0.84637,-4.41069 -1.56338,-6.53201c-0.6258,-5.50908 -0.16798,-10.68777 -0.15279,-16.1485c0.04602,-0.27853 0.09704,-0.55108 0.15256,-0.8215c-0.72525,0.90135 -1.84962,1.83662 -2.39298,1.61964c-0.67807,-0.27077 -0.91712,-1.14172 -1.44493,-1.64621c-0.41656,-0.39815 -1.51168,-0.80719 -1.45902,-1.55313c0.13548,-1.91913 4.77691,-3.5558 6.04132,-4.80249c3.09104,-2.05921 5.55607,-4.61101 8.26044,-7.12084c0.37846,-0.35124 2.07392,-2.31369 2.70332,-2.12831c0.62857,0.18513 1.62419,1.80663 2.06126,2.31936c5.13357,3.93739 10.92121,6.74732 15.47401,11.22441c0.54619,0.40979 0.98086,0.83856 1.56359,1.1931l0.50698,0.12675c0.22266,0.05053 0.38888,0.24966 0.38888,0.48761c0,0.16566 -0.08057,0.31251 -0.20466,0.40349l-0.45839,0.34379c-1.18391,1.56854 -2.49091,3.28516 -4.16868,2.32268c0.09791,0.64959 -0.05754,1.42009 -0.02605,2.04799c0.03001,0.59835 0.02191,1.25569 0.00239,1.94382zM592.70458,43.41574c-0.0082,-0.01363 -0.0123,-0.02183 -0.0123,-0.02183l-0.15988,-0.32363c-1.09862,-2.83197 -1.15319,-8.51022 -0.52503,-12.04284h-0.08216v-0.85714c0,-0.27614 0.22386,-0.5 0.5,-0.5c0.1996,0 0.37189,0.11696 0.45206,0.28608l0.25198,0.50396c1.64673,1.58836 1.76652,-1.36988 3.12745,-1.8501c-0.57184,-0.3755 -1.02247,-0.78118 -1.58633,-1.20392c-4.54672,-4.49524 -10.38087,-7.2799 -15.51012,-11.25707c-0.55899,-0.64898 -0.99972,-1.41903 -1.52604,-2.0563c-0.37112,-0.44936 -0.72808,0.91716 -1.16126,1.30705c-0.93792,0.8442 -1.69272,1.73565 -2.53568,2.67889c-1.63818,1.83308 -4.44443,3.69116 -6.48216,5.05062c-1.44689,1.42661 -4.75188,2.29639 -5.67296,4.05466c-0.21495,0.41031 0.80555,0.47383 1.1408,0.79347c0.43608,0.41577 0.70765,0.97688 1.09811,1.43576c0.347,0.4078 0.67068,-0.84299 1.07654,-1.19226c0.41002,-0.35284 0.71404,-0.63503 1.04893,-0.90094l-0.07488,-0.07488l0.57143,-0.57143c0.09048,-0.09048 0.21548,-0.14645 0.35355,-0.14645c0.27614,0 0.5,0.22386 0.5,0.5c0,0.04574 -0.00614,0.09005 -0.01765,0.13215l-0.14014,0.56055c-0.16072,0.64287 -0.30514,1.26529 -0.41535,1.91997c0.0172,5.35368 -0.45318,10.44657 0.13292,15.8515c0.64779,1.96924 0.15391,3.77235 1.09414,5.72625c0.3169,0.65856 3.57619,1.31769 3.82743,0.58597c0.29196,-0.85031 -0.05279,-2.69004 -0.05279,-3.63354c0,-3.07398 -1.18464,-9.01775 0.52295,-11.57807c1.06844,-1.60199 4.20044,-1.863 5.92778,-2.20521c1.50845,-0.00481 5.84853,0.18087 6.76031,1.52042c0.2383,0.35011 0.07737,1.86526 0.07467,2.26287c-0.01548,2.28291 -0.42857,4.6297 -0.42857,7c0,2.12612 -0.60792,4.08197 -0.74829,6.19166c-0.03496,0.52535 -0.50837,1.19885 -0.13839,1.57347c0.05498,0.05567 2.03187,-0.22582 2.09894,-0.24368c2.21933,-0.59082 3.38696,-1.54286 5.18959,-2.84183c0.94298,-1.96317 1.35164,-4.1705 1.52039,-6.43419z" fill="#000000" stroke="none" stroke-width="0.5"/><path d="M628.13829,38.35708c0.24945,-1.58994 0.03113,-3.81603 0.90079,-4.90935c0.51793,-0.65113 2.92606,-0.93686 3.47791,-0.33333c0.59102,0.64636 0.27798,2.77072 0.09063,3.52011c-0.00786,0.58828 -0.24304,1.16061 -0.48405,1.69731c-0.09076,0.20211 -0.49545,0.53201 -0.28477,0.60055c1.33953,0.43583 5.36271,-0.4188 6.4136,0.58027c1.06054,1.00825 1.01403,6.17894 -1.52259,4.34557c-1.10408,-0.28055 -4.97568,-1.87355 -5.63479,-2.73146c-0.13285,-0.17292 0.21752,0.37883 0.30693,0.57772c0.19333,0.43006 0.48143,0.83986 0.539,1.30785c0.19464,1.58223 0.00375,3.2967 0.00375,4.89442c-0.20902,1.45614 -2.71109,1.41631 -3.62569,0.40562c-0.1493,-0.16498 -0.26631,-0.34074 -0.35657,-0.52534c0.06721,0.18865 0.14402,0.3756 0.23302,0.56041c-0.104,2.09465 -2.16677,1.39268 -3.74743,1.4714c-4.19708,0.20901 -8.02768,-0.97365 -12.02184,-2.30503c-3.18487,-0.79403 -7.01227,-0.26574 -10.28878,-0.26577c-0.95717,-0.00001 -3.48623,0.35565 -4.22971,-0.3094c-0.35597,-0.31842 0.15891,-2.44022 0.16202,-2.96598c0.50235,-2.05979 1.1161,-4.8616 2.22735,-6.65112c1.27613,-2.05504 5.30969,-3.68863 7.57967,-4.34514c0.12733,-0.02513 0.25453,-0.04882 0.38159,-0.07111c-2.94534,-1.94895 -4.08687,-7.15654 -3.31096,-10.31109l0.00001,-0.00002c1.29747,-3.25716 3.18234,-8.11065 7.0553,-9.18481c1.48472,-0.41179 3.04027,-0.30421 4.5633,-0.30421c5.75222,0.11685 9.94939,6.79415 8.91639,12.03827c-0.38257,1.5279 -0.6161,4.8279 -1.84855,5.95815c-1.40388,1.28746 -3.47436,1.7108 -5.31572,2.33173c1.19113,0.25585 2.37817,0.54927 3.56421,0.84578c1.36689,0.67718 2.35952,1.7149 3.10022,2.95116c1.32357,0.06653 2.67683,0.47922 3.099,1.11248zM628.00387,42.14268c-0.00511,-0.0184 -0.59474,-0.07727 -1.28832,-0.14678c0.10351,0.47071 0.19564,0.94282 0.28032,1.41109l0.05017,0.20125c0.35855,1.09873 0.4197,2.24832 0.68002,3.36237c-0.1991,-1.53813 0.66906,-3.41984 0.27781,-4.82793zM624.53128,41.73362c-1.52535,0.02345 -3.60166,-2.10077 -2.34523,-3.75641c0.29962,-0.39482 0.92273,-0.62316 1.65931,-0.71247c-0.59601,-0.8508 -1.34769,-1.56105 -2.30998,-2.04779c-1.62312,-0.40578 -3.25499,-0.81286 -4.8996,-1.11733c-0.09676,0.01674 -0.22488,0.01541 -0.34115,-0.06162c-2.68688,-0.47292 -5.40848,-0.65341 -8.18226,-0.08979c-5.76551,1.62353 -7.66879,4.78331 -9.05012,10.1466c0.00219,0.29767 0.01359,1.36253 -0.00963,1.48236c-0.05082,0.26224 -0.6648,0.6611 -0.39977,0.69452c4.58135,0.57778 9.53715,-0.84988 14.05294,0.28197c3.5902,1.19673 7.00384,2.26428 10.71735,2.26577c0.57254,0.00023 3.87905,0.14304 3.79909,-0.24227c-0.28853,-0.55205 -0.44732,-1.1359 -0.56062,-1.73042c-0.13058,-0.12431 -0.16024,-0.30226 -0.16024,-0.30226c-0.14094,-0.84563 -0.27342,-1.78009 -0.43717,-2.74341l-0.12613,-0.50324c0,0 -0.02674,-0.10695 -0.00488,-0.23297l-0.00001,0.00002c-0.07298,-0.39036 -0.1526,-0.78293 -0.24141,-1.17383c-0.5701,-0.06091 -1.05056,-0.11919 -1.16048,-0.15744zM627.94784,39.31612l-0.4733,-0.17869c-0.24785,-0.37178 -1.06358,-0.69124 -1.93972,-0.85469c0.38358,0.83463 0.6814,1.72983 0.92355,2.64577c1.01927,0.04882 2.07871,0.13979 2.42717,0.7423c0.7183,1.24199 -0.21106,3.87724 -0.09752,5.20314c0.06231,0.72768 2.3438,1.43286 2.15669,1.03279c0,-1.9517 0.27486,-4.02128 -0.45726,-5.79772c-0.11279,-0.27369 -0.45655,-1.51342 -0.0264,-1.75561c1.6744,-0.94278 5.16177,2.22419 6.69855,2.60187c1.31899,1.03186 0.93406,-2.04411 0.47741,-2.65443c-0.2217,-0.2963 -0.7384,0.14443 -1.10572,0.09944c-1.25512,-0.15373 -4.64778,0.1324 -5.48068,-0.8525c-0.63127,-0.74648 0.57692,-2.24579 0.56452,-3.03546c0.25303,-1.01212 0.59198,-2.76178 -0.42366,-2.61203c-0.05672,0.00836 -1.26965,0.00967 -1.34114,0.13214c-0.79448,1.36115 -0.40606,3.78656 -0.93128,5.36576c0,0 -0.15811,0.47434 -0.63246,0.31623c-0.2503,-0.08343 -0.3245,-0.25492 -0.33875,-0.3983zM623.03669,38.50295c-0.20625,0.20649 0.19747,0.55363 0.2376,0.84271c0.04408,0.31759 -0.19939,1.22602 0.09995,1.4691c0.03037,0.02466 1.23648,-0.06912 1.31723,-0.06822c0.20102,0.0647 0.45743,0.10166 0.74473,0.12617c-0.26419,-0.9523 -0.59826,-1.87382 -1.04086,-2.7062c-0.59998,-0.00542 -1.11624,0.09377 -1.35863,0.33644zM622.92672,30.39446c1.00828,-0.81644 1.28417,-4.28497 1.58002,-5.47043c0.91718,-4.50536 -1.3815,-7.39104 -4.92566,-9.5305c-0.81999,-0.49499 -2.05865,-1.31786 -3.01509,-1.28838c-1.43315,0 -2.89493,-0.10665 -4.29384,0.26722c-3.51524,0.93947 -5.20554,5.62331 -6.37327,8.52947c-0.73508,2.87596 0.59331,8.86592 3.87106,9.63563l0.51034,-0.00375c0,0 0.18222,0 0.32665,0.11c1.99068,-0.10018 3.95313,0.09434 5.90065,0.43471c2.04539,-0.95829 4.62262,-1.22925 6.41915,-2.68398z" fill="#000000" stroke="none" stroke-width="0.5"/><path d="M495.58447,72.53884c-0.01866,-0.32408 0.00607,-0.70508 0.03112,-1.03581c-2.53127,-0.25462 -5.06541,-0.56059 -7.6178,-0.55531c-1.43495,-0.00265 -3.88679,0.30637 -5.20289,-0.33399c-1.28639,-0.6259 -0.39069,-2.21537 -0.27966,-3.22603c0.27491,-2.50234 -0.70956,-5.64062 0.44864,-7.954c0.75709,-5.56674 4.08254,-11.90105 10.45018,-11.91361c6.73096,-0.96127 8.80516,2.97589 9.80125,8.96975c0.55015,2.19647 0.07518,4.40287 0.29376,6.62397c0.23112,2.34855 0.56835,4.13203 0.06074,6.4305c0.35281,0.62145 0.49192,1.20936 0.17797,2.15573c-2.39576,0.25452 -4.77946,0.11914 -7.16396,-0.10287c-0.04916,0.38842 -0.09601,0.79051 -0.03536,0.97249c0.16016,0.48047 1.04838,-0.35916 1.51152,-0.15423c0.32585,0.14418 2.22095,1.32838 2.39235,1.65458c1.35441,2.57766 -2.39001,3.59304 -4.01227,3.59307c-1.09339,0 -3.95351,-0.15837 -4.68307,-1.1965c-1.74487,-2.48288 2.41932,-3.63488 3.82747,-3.92774zM496.15436,70.37737c0.2417,0 0.36656,0.11684 0.43106,0.23755c0.96085,0.11329 1.92959,0.22928 2.91574,0.33762c1.18082,0.12973 2.50876,-0.30186 3.6312,-0.04071c-0.09018,-0.25899 -0.20428,-0.49574 -0.3328,-0.72173c-0.25162,-0.10334 -0.28941,-0.32423 -0.28646,-0.4607c-0.15785,-0.23745 -0.32505,-0.47158 -0.48906,-0.71754l-0.08397,-0.42021c0,0 0,-0.5 0.5,-0.5c0.15734,0 0.26517,0.04951 0.33907,0.11738c0.18335,-1.68248 -0.07913,-3.16079 -0.2652,-4.99668c-0.22116,-2.18207 0.26,-4.36426 -0.27767,-6.51888c-0.92628,-5.54234 -2.51367,-9.06717 -8.75008,-8.17598c-6.01505,0.01779 -8.79817,6.04427 -9.56705,11.21202c-0.94678,1.9419 -0.40315,4.88138 -0.40763,7.00501c-0.00204,0.96633 -0.45811,1.94765 -0.44671,2.86653c0.00452,0.36434 4.48448,0.34585 4.93485,0.34668c2.68196,0.01738 5.21654,0.27557 7.78894,0.57389c0.07385,-0.08126 0.18832,-0.14424 0.36578,-0.14424zM496.08952,73.47121c-0.11457,0.04901 -0.22088,0.04901 -0.22088,0.04901l-0.0448,-0.00971c-0.49262,0.09692 -4.40213,0.83669 -3.27213,2.34907c0.54421,0.72836 3.06671,0.8035 3.88836,0.8035c0.03151,0 1.34605,0.00199 1.39408,-0.00564c2.92743,-0.46501 1.26884,-2.4498 -0.15685,-3.31813c-0.5758,-0.3507 -0.94713,0.51072 -1.58778,0.1319z" fill="#000000" stroke="none" stroke-width="0.5"/></g></g></svg>