<svg version="1.1" xmlns="http://www.w3.org/2000/svg" xmlns:xlink="http://www.w3.org/1999/xlink" width="41.1238" height="36.77852" viewBox="0,0,41.1238,36.77852"><g transform="translate(-275.24848,-2.56074)"><g data-paper-data="{&quot;isPaintingLayer&quot;:true}" fill-rule="nonzero" stroke="none" stroke-width="0.5" stroke-linecap="butt" stroke-linejoin="miter" stroke-miterlimit="10" stroke-dasharray="" stroke-dashoffset="0" style="mix-blend-mode: normal"><path d="M305.60444,27.82533c0.24945,-1.58994 0.03112,-3.81603 0.90079,-4.90936c0.51794,-0.65113 2.92606,-0.93686 3.47791,-0.33333c0.59102,0.64636 0.27799,2.77072 0.09064,3.52011c-0.00786,0.58827 -0.24305,1.16062 -0.48405,1.69732c-0.09076,0.20211 -0.49545,0.53201 -0.28477,0.60055c1.33953,0.43583 5.36272,-0.4188 6.41361,0.58027c1.06054,1.00824 1.01403,6.17894 -1.5226,4.34557c-1.10408,-0.28054 -4.97568,-1.87355 -5.63479,-2.73146c-0.13285,-0.17292 0.21752,0.37883 0.30693,0.57772c0.19333,0.43006 0.48143,0.83985 0.53899,1.30785c0.19464,1.58223 0.00375,3.2967 0.00375,4.89442c-0.20902,1.45614 -2.71109,1.41631 -3.62569,0.40563c-0.14929,-0.16498 -0.26631,-0.34074 -0.35658,-0.52533c0.06721,0.18865 0.14402,0.3756 0.23302,0.5604c-0.104,2.09465 -2.16677,1.39268 -3.74743,1.4714c-4.19708,0.20901 -8.02768,-0.97365 -12.02184,-2.30503c-3.18487,-0.79403 -7.01227,-0.26574 -10.28878,-0.26577c-0.95717,-0.00001 -3.48623,0.35565 -4.22971,-0.3094c-0.35597,-0.31842 0.15891,-2.44022 0.16202,-2.96598c0.50235,-2.05979 1.1161,-4.8616 2.22735,-6.65112c1.27613,-2.05504 5.30969,-3.68863 7.57967,-4.34514c0.12733,-0.02513 0.25453,-0.04882 0.38159,-0.07111c-2.94534,-1.94895 -4.08687,-7.15654 -3.31096,-10.31109l0.00001,-0.00002c1.29747,-3.25716 3.18234,-8.11065 7.0553,-9.18481c1.48472,-0.41179 3.04027,-0.30421 4.5633,-0.30421c5.75222,0.11685 9.94939,6.79415 8.91639,12.03827c-0.38257,1.5279 -0.6161,4.8279 -1.84855,5.95815c-1.40388,1.28746 -3.47436,1.7108 -5.31572,2.33173c1.19113,0.25585 2.37817,0.54927 3.56421,0.84578c1.36689,0.67718 2.35952,1.7149 3.10022,2.95116c1.32356,0.06653 2.67683,0.47921 3.099,1.11247zM305.47002,31.61093c-0.00511,-0.01841 -0.59474,-0.07727 -1.28832,-0.14678c0.10352,0.47071 0.19564,0.94282 0.28032,1.41109l0.05017,0.20125c0.35856,1.09873 0.4197,2.24831 0.68002,3.36236c-0.1991,-1.53813 0.66906,-3.41984 0.27781,-4.82793zM301.99743,31.20188c-1.52535,0.02345 -3.60165,-2.10078 -2.34524,-3.75641c0.29962,-0.39482 0.92273,-0.62316 1.65931,-0.71247c-0.59601,-0.85081 -1.34769,-1.56105 -2.30998,-2.04778c-1.62312,-0.40578 -3.25499,-0.81286 -4.8996,-1.11733c-0.09676,0.01674 -0.22488,0.01541 -0.34115,-0.06162c-2.68688,-0.47292 -5.40848,-0.65341 -8.18226,-0.08979c-5.76551,1.62353 -7.66879,4.78331 -9.05012,10.1466c0.00219,0.29767 0.01359,1.36253 -0.00963,1.48236c-0.05082,0.26224 -0.6648,0.6611 -0.39977,0.69452c4.58135,0.57778 9.53715,-0.84988 14.05294,0.28197c3.5902,1.19673 7.00384,2.26428 10.71735,2.26577c0.57254,0.00023 3.87905,0.14304 3.79909,-0.24227c-0.28853,-0.55205 -0.44732,-1.1359 -0.56062,-1.73042c-0.13058,-0.12431 -0.16024,-0.30226 -0.16024,-0.30226c-0.14094,-0.84563 -0.27342,-1.78009 -0.43717,-2.74341l-0.12613,-0.50324c0,0 -0.02674,-0.10695 -0.00488,-0.23297l-0.00001,0.00002c-0.07299,-0.39037 -0.1526,-0.78293 -0.24141,-1.17383c-0.5701,-0.06091 -1.05056,-0.11919 -1.16048,-0.15743zM305.414,28.78438l-0.4733,-0.17869c-0.24785,-0.37177 -1.06358,-0.69124 -1.93972,-0.85469c0.38358,0.83463 0.6814,1.72983 0.92354,2.64577c1.01927,0.04882 2.07872,0.13979 2.42718,0.74231c0.7183,1.24199 -0.21106,3.87724 -0.09752,5.20314c0.06232,0.72769 2.34381,1.43286 2.15669,1.03278c0,-1.9517 0.27486,-4.02127 -0.45726,-5.79772c-0.11279,-0.27369 -0.45655,-1.51342 -0.02641,-1.75561c1.6744,-0.94278 5.16177,2.2242 6.69855,2.60187c1.31899,1.03186 0.93406,-2.04411 0.4774,-2.65443c-0.2217,-0.2963 -0.7384,0.14443 -1.10571,0.09944c-1.25512,-0.15374 -4.64778,0.1324 -5.48068,-0.85251c-0.63126,-0.74648 0.57692,-2.24578 0.56451,-3.03546c0.25303,-1.01212 0.59198,-2.76178 -0.42365,-2.61203c-0.05672,0.00837 -1.26965,0.00967 -1.34113,0.13215c-0.79448,1.36115 -0.40606,3.78656 -0.93128,5.36576c0,0 -0.15812,0.47434 -0.63245,0.31623c-0.2503,-0.08344 -0.3245,-0.25492 -0.33875,-0.3983zM300.50284,27.9712c-0.20625,0.20649 0.19747,0.55362 0.23759,0.84271c0.04408,0.31759 -0.19939,1.22602 0.09995,1.4691c0.03037,0.02466 1.23648,-0.06912 1.31722,-0.06822c0.20103,0.06471 0.45743,0.10166 0.74474,0.12617c-0.26419,-0.9523 -0.59826,-1.87383 -1.04087,-2.7062c-0.59998,-0.00542 -1.11624,0.09377 -1.35863,0.33644zM300.39287,19.86271c1.00828,-0.81644 1.28417,-4.28497 1.58002,-5.47043c0.91718,-4.50536 -1.3815,-7.39104 -4.92566,-9.5305c-0.81999,-0.49499 -2.05865,-1.31786 -3.01509,-1.28838c-1.43315,0 -2.89493,-0.10665 -4.29384,0.26722c-3.51524,0.93947 -5.20554,5.62331 -6.37327,8.52947c-0.73508,2.87596 0.59331,8.86592 3.87106,9.63563l0.51034,-0.00375c0,0 0.18222,0 0.32665,0.11c1.99068,-0.10018 3.95313,0.09434 5.90065,0.43471c2.04539,-0.95829 4.62262,-1.22925 6.41915,-2.68398z" fill="#000000"/><path d="M305.7056,29.166c0.47434,0.15811 0.63562,-0.32335 0.63562,-0.32335c0.52522,-1.5792 0.16723,-4.02895 0.96171,-5.39009c0.07148,-0.12248 1.29367,-0.12547 1.35039,-0.13383c1.01563,-0.14975 0.68305,1.69968 0.43002,2.7118c0.01241,0.78968 -1.22132,2.19488 -0.59006,2.94136c0.8329,0.98491 4.29869,0.73708 5.55381,0.89081c0.36732,0.04499 0.88404,-0.39548 1.10574,-0.09918c0.45666,0.61032 0.83875,3.70934 -0.48024,2.67748c-1.53678,-0.37767 -5.02542,-3.54156 -6.69982,-2.59878c-0.43014,0.24219 -0.09439,1.42839 0.0184,1.70208c0.73212,1.77645 0.41358,3.92864 0.41358,5.88033c0.18712,0.40008 -2.11095,-0.31017 -2.17326,-1.03785c-0.11354,-1.3259 0.78994,-3.99381 0.07164,-5.2358c-0.34846,-0.60252 -1.40934,-0.70565 -2.42861,-0.75447c-0.24214,-0.91595 -0.53596,-1.83051 -0.91953,-2.66514c0.87614,0.16345 1.78394,0.52194 2.03179,0.89371l0.47322,0.1789c0.01425,0.14338 -0.00469,0.27859 0.24561,0.36203z" data-paper-data="{&quot;noHover&quot;:false,&quot;origItem&quot;:[&quot;Path&quot;,{&quot;applyMatrix&quot;:true,&quot;segments&quot;:[[[305.414,28.78438],[0.01425,0.14338],[0,0]],[[304.94069,28.60569],[0,0],[-0.24785,-0.37177]],[[303.00097,27.75099],[0.87614,0.16345],[0.38358,0.83463]],[[303.92452,30.39677],[-0.24214,-0.91595],[1.01927,0.04882]],[[306.35169,31.13907],[-0.34846,-0.60252],[0.7183,1.24199]],[[306.25417,36.34221],[-0.11354,-1.3259],[0.06232,0.72769]],[[308.41086,37.375],[0.18712,0.40008],[0,-1.9517]],[[307.9536,31.57728],[0.73212,1.77645],[-0.11279,-0.27369]],[[307.92719,29.82166],[-0.43014,0.24219],[1.6744,-0.94278]],[[314.62574,32.42353],[-1.53678,-0.37767],[1.31899,1.03186]],[[315.10315,29.7691],[0.45666,0.61032],[-0.2217,-0.2963]],[[313.99743,29.86854],[0.36732,0.04499],[-1.25512,-0.15374]],[[308.51675,29.01604],[0.8329,0.98491],[-0.63126,-0.74648]],[[309.08126,25.98057],[0.01241,0.78968],[0.25303,-1.01212]],[[308.65761,23.36854],[1.01563,-0.14975],[-0.05672,0.00837]],[[307.31648,23.50069],[0.07148,-0.12248],[-0.79448,1.36115]],[[306.3852,28.86645],[0.52522,-1.5792],[0,0]],[[305.75274,29.18267],[0.47434,0.15811],[-0.2503,-0.08344]]],&quot;closed&quot;:true}]}" fill="#ffffff"/><path d="M301.86836,27.58523c0.44261,0.83237 0.80341,1.84044 1.0676,2.79274c-0.28731,-0.02451 -0.55897,-0.05197 -0.76,-0.11667c-0.08074,-0.0009 -1.33225,0.08842 -1.36262,0.06376c-0.29934,-0.24308 -0.07797,-1.20272 -0.12205,-1.52031c-0.04012,-0.28909 -0.43245,-0.65985 -0.22619,-0.86634c0.24239,-0.24267 0.80329,-0.3586 1.40327,-0.35318z" data-paper-data="{&quot;noHover&quot;:false,&quot;origItem&quot;:[&quot;Path&quot;,{&quot;applyMatrix&quot;:true,&quot;segments&quot;:[[[300.50284,27.9712],[0.24239,-0.24267],[-0.20625,0.20649]],[[300.74044,28.81391],[-0.04012,-0.28909],[0.04408,0.31759]],[[300.84039,30.28301],[-0.29934,-0.24308],[0.03037,0.02466]],[[302.15761,30.21479],[-0.08074,-0.0009],[0.20103,0.06471]],[[302.90235,30.34096],[-0.28731,-0.02451],[-0.26419,-0.9523]],[[301.86148,27.63476],[0.44261,0.83237],[-0.59998,-0.00542]]],&quot;closed&quot;:true}]}" fill="#ffffff"/><path d="M300.43038,19.89577c-1.79653,1.45473 -4.40447,1.74215 -6.44986,2.70044c-1.94752,-0.34037 -3.9394,-0.53984 -5.93008,-0.43966c-0.14443,-0.11 -0.32813,-0.11078 -0.32813,-0.11078l-0.51218,0.00269c-3.27775,-0.76971 -4.63006,-6.80607 -3.89498,-9.68203c1.16773,-2.90616 2.89273,-7.63398 6.40797,-8.57345c1.39891,-0.37387 2.88296,-0.26907 4.31611,-0.26907c0.95644,-0.02948 2.21156,0.79878 3.03155,1.29377c3.54416,2.13946 5.86877,5.07637 4.95159,9.58173c-0.29585,1.18546 -0.58373,4.67994 -1.59201,5.49638z" data-paper-data="{&quot;noHover&quot;:false,&quot;origItem&quot;:[&quot;Path&quot;,{&quot;applyMatrix&quot;:true,&quot;segments&quot;:[[[300.39287,19.86271],[0,0],[1.00828,-0.81644]],[[301.97289,14.39228],[-0.29585,1.18546],[0.91718,-4.50536]],[[297.04723,4.86178],[3.54416,2.13946],[-0.81999,-0.49499]],[[294.03214,3.5734],[0.95644,-0.02948],[-1.43315,0]],[[289.7383,3.84062],[1.39891,-0.37387],[-3.51524,0.93947]],[[283.36503,12.37009],[1.16773,-2.90616],[-0.73508,2.87596]],[[287.23609,22.00572],[-3.27775,-0.76971],[0,0]],[287.74643,22.00197],[[288.07308,22.11197],[-0.14443,-0.11],[1.99068,-0.10018]],[[293.97373,22.54668],[-1.94752,-0.34037],[2.04539,-0.95829]],[[300.39288,19.8627],[-1.79653,1.45473],[0,0]]],&quot;closed&quot;:true}]}" fill="#ffffff"/><path d="M303.20784,31.36192c0.08881,0.3909 0.168,0.78786 0.24099,1.17822l0.00001,-0.00002c-0.02186,0.12602 0.00475,0.23383 0.00475,0.23383l0.12582,0.50499c0.16375,0.96332 0.29372,1.90639 0.43466,2.75202c0,0 0.02938,0.17865 0.15996,0.30296c0.1133,0.59452 0.27028,1.18229 0.55881,1.73434c0.07996,0.38531 -3.23049,0.24893 -3.80303,0.2487c-3.71351,-0.00149 -7.16955,-1.04835 -10.75975,-2.24508c-4.51579,-1.13185 -9.51685,0.26254 -14.0982,-0.31524c-0.26503,-0.03342 0.34838,-0.43398 0.3992,-0.69622c0.02322,-0.11983 0.01056,-1.18953 0.00837,-1.4872c1.38133,-5.36329 3.30606,-8.57498 9.07157,-10.19851c2.77378,-0.56362 5.54423,-0.3866 8.23111,0.08632c0.11627,0.07703 0.24625,0.07929 0.34301,0.06255c1.64461,0.30447 3.29432,0.72728 4.91744,1.13306c0.96229,0.48673 1.71995,1.20853 2.31596,2.05934c-0.73658,0.08931 -1.35951,0.31816 -1.65913,0.71298c-1.25642,1.65564 0.82263,3.79856 2.34799,3.77511c0.10992,0.03824 0.59036,0.09694 1.16046,0.15785z" data-paper-data="{&quot;noHover&quot;:false,&quot;origItem&quot;:[&quot;Path&quot;,{&quot;applyMatrix&quot;:true,&quot;segments&quot;:[[[301.99743,31.20188],[0.10992,0.03824],[-1.52535,0.02345]],[[299.6522,27.44547],[-1.25642,1.65564],[0.29962,-0.39482]],[[301.3115,26.733],[-0.73658,0.08931],[-0.59601,-0.85081]],[[299.00152,24.68521],[0.96229,0.48673],[-1.62312,-0.40578]],[[294.10192,23.56788],[1.64461,0.30447],[-0.09676,0.01674]],[[293.76077,23.50626],[0.11627,0.07703],[-2.68688,-0.47292]],[[285.57851,23.41647],[2.77378,-0.56362],[-5.76551,1.62353]],[[276.52839,33.56307],[1.38133,-5.36329],[0.00219,0.29767]],[[276.51876,35.04543],[0.02322,-0.11983],[-0.05082,0.26224]],[[276.11899,35.73995],[-0.26503,-0.03342],[4.58135,0.57778]],[[290.17193,36.02192],[-4.51579,-1.13185],[3.5902,1.19673]],[[300.88928,38.28769],[-3.71351,-0.00149],[0.57254,0.00023]],[[304.68837,38.04542],[0.07996,0.38531],[-0.28853,-0.55205]],[[304.12775,36.315],[0.1133,0.59452],[-0.13058,-0.12431]],[[303.96751,36.01274],[0,0],[-0.14094,-0.84563]],[[303.53034,33.26933],[0.16375,0.96332],[0,0]],[303.40421,32.76609],[[303.39933,32.53312],[-0.02186,0.12602],[0,0]],[[303.39932,32.53314],[0,0],[-0.07299,-0.39037]],[[303.15791,31.35931],[0.08881,0.3909],[-0.5701,-0.06091]]],&quot;closed&quot;:true}]}" fill="#ffffff"/></g></g></svg>